<?xml version="1.0" encoding="UTF-8" standalone="no"?>
<svg
   xmlns:dc="http://purl.org/dc/elements/1.1/"
   xmlns:cc="http://creativecommons.org/ns#"
   xmlns:rdf="http://www.w3.org/1999/02/22-rdf-syntax-ns#"
   xmlns:svg="http://www.w3.org/2000/svg"
   xmlns="http://www.w3.org/2000/svg"
   xmlns:sodipodi="http://sodipodi.sourceforge.net/DTD/sodipodi-0.dtd"
   xmlns:inkscape="http://www.inkscape.org/namespaces/inkscape"
   width="64"
   height="64"
   viewBox="0 0 63.999999 64.000001"
   version="1.1"
   id="svg2"
   inkscape:version="0.91 r13725"
   sodipodi:docname="logo.svg">
  <metadata
     id="metadata67">
    <rdf:RDF>
      <cc:Work
         rdf:about="">
        <dc:format>image/svg+xml</dc:format>
        <dc:type
           rdf:resource="http://purl.org/dc/dcmitype/StillImage" />
        <dc:title></dc:title>
      </cc:Work>
    </rdf:RDF>
  </metadata>
  <sodipodi:namedview
     pagecolor="#ffffff"
     bordercolor="#666666"
     borderopacity="1"
     objecttolerance="10"
     gridtolerance="10"
     guidetolerance="10"
     inkscape:pageopacity="0"
     inkscape:pageshadow="2"
     inkscape:window-width="1920"
     inkscape:window-height="1031"
     id="namedview65"
     showgrid="false"
     inkscape:zoom="1.7264692"
     inkscape:cx="-14.129802"
     inkscape:cy="-12.019893"
     inkscape:window-x="0"
     inkscape:window-y="1"
     inkscape:window-maximized="1"
     inkscape:current-layer="layer2"
     fit-margin-top="0"
     fit-margin-left="0"
     fit-margin-right="0"
     fit-margin-bottom="0" />
  <defs
     id="defs4">
    <radialGradient
       id="a"
       gradientUnits="userSpaceOnUse"
       cy="442.72311"
       cx="-122.3936"
       gradientTransform="matrix(1,0,0,-1,134.4463,453.7334)"
       r="29.5804">
      <stop
         stop-color="#fff"
         offset="0"
         id="stop7" />
      <stop
         stop-color="#007808"
         offset="1"
         id="stop9" />
    </radialGradient>
  </defs>
  <style
     id="style4269"
     type="text/css">
	.st0{fill:#80C342;}
	.st1{fill:#FFFFFF;}
	.st2{fill:none;}
</style>
  <g
     inkscape:groupmode="layer"
     id="layer1"
     inkscape:label="FFmpeg"
     style="display:none;opacity:1"
     transform="translate(0,2.1246986)" />
  <g
     inkscape:groupmode="layer"
     id="layer2"
     inkscape:label="QT"
     style="display:inline;opacity:1"
     transform="translate(0,2.1246986)">
    <polygon
       style="fill:#0b4819"
       id="polygon13"
       points="5.402,13.541 0.511,12.364 0.511,5.078 5.402,6.763 "
       transform="matrix(-1.0431778,0,0,1.0343384,64,-2.124697)" />
    <polygon
       style="fill:#0b4819"
       id="polygon15"
       points="9.13,41.393 4.455,42.317 4.455,15.226 9.13,16.215 "
       transform="matrix(-1.0431778,0,0,1.0343384,64,-2.124697)" />
    <polygon
       style="fill:#105c80"
       id="polygon17"
       points="33.126,4.617 61.351,2.432 19.834,45.706 25.361,45.997 55.516,15.154 55.516,44.305 52.166,47.454 60.662,47.913 60.662,55.981 34.012,53.917 47.597,40.738 47.597,34.243 28.175,53.465 4.919,51.667 42.222,11.55 36.083,11.882 9.13,41.393 9.13,16.215 11.683,13.201 5.402,13.541 5.402,6.763 27.321,5.066 15.306,18.846 15.306,24.71 "
       transform="matrix(-1.0431778,0,0,1.0343384,64,-2.124697)" />
    <polygon
       style="fill:#0b4819"
       id="polygon19"
       points="9.13,16.215 4.455,15.226 7.159,11.971 11.683,13.201 "
       transform="matrix(-1.0431778,0,0,1.0343384,64,-2.124697)" />
    <polygon
       style="fill:#084010"
       id="polygon21"
       points="11.004,24.358 11.004,18.039 15.306,18.846 15.306,24.71 "
       transform="matrix(-1.0431778,0,0,1.0343384,64,-2.124697)" />
    <polygon
       style="fill:#0c541e"
       id="polygon23"
       points="21.714,47.346 15.82,47.006 19.834,45.706 25.361,45.997 "
       transform="matrix(-1.0431778,0,0,1.0343384,64,-2.124697)" />
    <polygon
       style="fill:#1a5c34"
       id="polygon25"
       points="11.004,18.039 23.808,3.106 27.321,5.066 15.306,18.846 "
       transform="matrix(-1.0431778,0,0,1.0343384,64,-2.124697)" />
    <polygon
       style="fill:#0b4819"
       id="polygon27"
       points="15.306,24.71 11.004,24.358 30.022,2.58 33.126,4.617 "
       transform="matrix(-1.0431778,0,0,1.0343384,64,-2.124697)" />
    <polygon
       style="fill:#1a5c34"
       id="polygon29"
       points="4.455,42.317 33.195,10.432 36.083,11.882 9.13,41.393 "
       transform="matrix(-1.0431778,0,0,1.0343384,64,-2.124697)" />
    <polygon
       style="fill:#0b4819"
       id="polygon31"
       points="4.919,51.667 0,53.344 39.798,10.042 42.222,11.55 "
       transform="matrix(-1.0431778,0,0,1.0343384,64,-2.124697)" />
    <polygon
       style="fill:#1a5c34"
       id="polygon33"
       points="24.721,55.437 45.597,34.677 47.597,34.243 28.175,53.465 "
       transform="matrix(-1.0431778,0,0,1.0343384,64,-2.124697)" />
    <polygon
       style="fill:#0b4819"
       id="polygon35"
       points="47.597,40.738 45.597,41.737 45.597,34.677 47.597,34.243 "
       transform="matrix(-1.0431778,0,0,1.0343384,64,-2.124697)" />
    <polygon
       style="fill:#0b4819"
       id="polygon37"
       points="34.012,53.917 30.973,55.965 45.597,41.737 47.597,40.738 "
       transform="matrix(-1.0431778,0,0,1.0343384,64,-2.124697)" />
    <polygon
       style="fill:#13802d"
       id="polygon39"
       points="55.516,44.305 54.168,45.648 50.538,49.059 52.166,47.454 "
       transform="matrix(-1.0431778,0,0,1.0343384,64,-2.124697)" />
    <polygon
       style="fill:#0b4819"
       id="polygon41"
       points="25.361,45.997 21.714,47.346 54.168,13.9 55.516,15.154 "
       transform="matrix(-1.0431778,0,0,1.0343384,64,-2.124697)" />
    <polygon
       style="fill:#084010"
       id="polygon43"
       points="54.168,45.648 54.168,13.9 55.516,15.154 55.516,44.305 "
       transform="matrix(-1.0431778,0,0,1.0343384,64,-2.124697)" />
    <polygon
       style="fill:#084010"
       id="polygon45"
       points="59.759,58.403 59.759,49.604 60.662,47.913 60.662,55.981 "
       transform="matrix(-1.0431778,0,0,1.0343384,64,-2.124697)" />
    <polygon
       style="fill:#1a5c34"
       id="polygon47"
       points="15.82,47.006 60.507,0 61.351,2.432 19.834,45.706 "
       transform="matrix(-1.0431778,0,0,1.0343384,64,-2.124697)" />
    <polygon
       style="fill:url(#a)"
       id="polygon49"
       points="30.022,2.58 60.507,0 15.82,47.006 21.714,47.346 54.168,13.9 54.168,45.648 50.538,49.059 59.759,49.604 59.759,58.403 30.973,55.965 45.597,41.737 45.597,34.677 24.721,55.437 0,53.344 39.798,10.042 33.195,10.432 4.455,42.317 4.455,15.226 7.159,11.971 0.511,12.364 0.511,5.078 23.808,3.106 11.004,18.039 11.004,24.358 "
       transform="matrix(-1.0431778,0,0,1.0343384,64,-2.124697)" />
    <path
       style="fill:#ffffff;fill-opacity:1;stroke:#cbcbcb;stroke-width:0.51937431;stroke-miterlimit:4;stroke-dasharray:none;stroke-opacity:1"
       d="m 41.949194,12.859068 -1.438445,6.062596 -1.941696,-0.139392 6.909016,7.599962 0,-3.234327 3.622597,0.177777 0,-3.785841 -3.622597,-0.276766 0,-4.189879 -1.788887,-2.032313 -1.739988,-0.181817 z m -2.112843,14.123163 0,11.258531 c 0,0.101852 0.01572,0.185791 0.01834,0.284847 l 5.032518,5.246439 c 0.01804,-0.0013 0.03493,-5.53e-4 0.05297,-0.0021 1.49113,-0.125532 2.950606,-0.524979 4.557791,-1.197973 l 0,-3.480792 c -0.805351,0.411468 -1.723106,0.645575 -2.489772,0.690906 -0.04572,0.0069 -0.07506,0.0061 -0.124285,0.0061 -0.502905,0 -0.818854,-0.157426 -1.061515,-0.474744 -0.270795,-0.348702 -0.34433,-1.122221 -0.34433,-2.325242 l 0,-3.919172 -5.641717,-6.086839 z"
       id="path4275"
       inkscape:connector-curvature="0" />
    <path
       style="fill:#ffffff;fill-opacity:1;stroke:#cbcbcb;stroke-width:0.51937431;stroke-miterlimit:4;stroke-dasharray:none;stroke-opacity:1"
       d="m 24.795847,10.758068 c -2.778685,0.147107 -5.015593,1.316053 -6.644146,3.56564 -0.211729,0.292908 -0.406596,0.613857 -0.596975,0.941409 l 5.250526,5.476741 c 0.186676,-1.357782 0.437096,-2.412746 0.762009,-3.121197 0.699847,-1.52034 1.705142,-2.276757 3.013398,-2.276757 0.105504,0 0.212896,0.0037 0.321917,0.01414 1.410244,0.122046 2.464882,1.095634 3.168246,2.894935 0.70688,1.792327 1.051327,5.056141 1.051327,9.801972 0,0.485781 -0.01856,0.880974 -0.02445,1.337367 l 5.653942,5.894921 c 0.363487,-2.070794 0.550211,-4.438151 0.552151,-7.131278 0,-1.467622 -0.06666,-2.831523 -0.189484,-4.109071 L 24.795847,10.758068 Z m -9.125769,9.848436 c -0.413778,2.079668 -0.633649,4.461839 -0.633649,7.179764 0,4.42028 0.47404,8.017064 1.397696,10.793887 l 0,-4.836341 14.058451,13.862558 c -0.305928,-0.507172 -0.552248,-1.202344 -0.731447,-2.117161 2.37158,-0.805128 4.147883,-2.477993 5.384997,-4.979773 l -4.441655,-4.539372 c -0.164404,1.145308 -0.37886,2.054662 -0.641799,2.723219 -0.713914,1.823711 -1.763919,2.779479 -3.160096,2.866653 -0.0633,0.0034 -0.124145,0.0061 -0.187445,0.0061 -1.392659,0 -2.453773,-0.988696 -3.16417,-2.979783 -0.7526,-2.09221 -1.126713,-5.65743 -1.126713,-10.678736 0,-0.142036 0.0076,-0.250493 0.0081,-0.389897 L 15.67003,20.606547 Z m 15.674154,27.838248 2.253427,2.222211 0,-1.983828 c -0.277828,0.0279 -0.537685,0.04646 -0.780346,0.04646 -0.603348,0 -1.092114,-0.09798 -1.473081,-0.284848 z m -6.813255,0.412119 c 0.527477,1.332666 1.18186,2.31229 1.962071,2.933319 0.56955,0.454686 1.265542,0.755927 2.055794,0.93939 l -4.017865,-3.872709 z"
       id="path4277"
       inkscape:connector-curvature="0" />
    <rect
       style="fill:none"
       y="-0.89100891"
       x="6.6518326"
       class="st2"
       width="48.532078"
       height="62.766312"
       id="rect4279" />
  </g>
</svg>
