<?xml version="1.0" encoding="UTF-8" standalone="no"?>
<svg
   xmlns:dc="http://purl.org/dc/elements/1.1/"
   xmlns:cc="http://creativecommons.org/ns#"
   xmlns:rdf="http://www.w3.org/1999/02/22-rdf-syntax-ns#"
   xmlns:svg="http://www.w3.org/2000/svg"
   xmlns="http://www.w3.org/2000/svg"
   xmlns:sodipodi="http://sodipodi.sourceforge.net/DTD/sodipodi-0.dtd"
   xmlns:inkscape="http://www.inkscape.org/namespaces/inkscape"
   width="61.351002"
   height="60.186737"
   viewBox="0 0 61.351001 60.186738"
   version="1.1"
   id="svg2"
   inkscape:version="0.91 r13725"
   sodipodi:docname="FFmpeg_Logo_new.svg">
  <metadata
     id="metadata67">
    <rdf:RDF>
      <cc:Work
         rdf:about="">
        <dc:format>image/svg+xml</dc:format>
        <dc:type
           rdf:resource="http://purl.org/dc/dcmitype/StillImage" />
        <dc:title></dc:title>
      </cc:Work>
    </rdf:RDF>
  </metadata>
  <sodipodi:namedview
     pagecolor="#ffffff"
     bordercolor="#666666"
     borderopacity="1"
     objecttolerance="10"
     gridtolerance="10"
     guidetolerance="10"
     inkscape:pageopacity="0"
     inkscape:pageshadow="2"
     inkscape:window-width="1920"
     inkscape:window-height="1031"
     id="namedview65"
     showgrid="false"
     inkscape:zoom="1.2207981"
     inkscape:cx="-30.354175"
     inkscape:cy="2.2892468"
     inkscape:window-x="0"
     inkscape:window-y="1"
     inkscape:window-maximized="1"
     inkscape:current-layer="layer2" />
  <defs
     id="defs4">
    <radialGradient
       id="a"
       gradientUnits="userSpaceOnUse"
       cy="442.72311"
       cx="-122.3936"
       gradientTransform="matrix(1,0,0,-1,134.4463,453.7334)"
       r="29.5804">
      <stop
         stop-color="#fff"
         offset="0"
         id="stop7" />
      <stop
         stop-color="#007808"
         offset="1"
         id="stop9" />
    </radialGradient>
  </defs>
  <style
     id="style4269"
     type="text/css">
	.st0{fill:#80C342;}
	.st1{fill:#FFFFFF;}
	.st2{fill:none;}
</style>
  <g
     inkscape:groupmode="layer"
     id="layer1"
     inkscape:label="FFmpeg"
     style="display:none;opacity:1" />
  <g
     inkscape:groupmode="layer"
     id="layer2"
     inkscape:label="QT"
     style="display:inline;opacity:1">
    <polygon
       style="fill:#0b4819"
       id="polygon13"
       points="5.402,6.763 5.402,13.541 0.511,12.364 0.511,5.078 "
       transform="matrix(-1,0,0,1,61.351,0)" />
    <polygon
       style="fill:#0b4819"
       id="polygon15"
       points="9.13,16.215 9.13,41.393 4.455,42.317 4.455,15.226 "
       transform="matrix(-1,0,0,1,61.351,0)" />
    <polygon
       style="fill:#105c80"
       id="polygon17"
       points="60.662,47.913 60.662,55.981 34.012,53.917 47.597,40.738 47.597,34.243 28.175,53.465 4.919,51.667 42.222,11.55 36.083,11.882 9.13,41.393 9.13,16.215 11.683,13.201 5.402,13.541 5.402,6.763 27.321,5.066 15.306,18.846 15.306,24.71 33.126,4.617 61.351,2.432 19.834,45.706 25.361,45.997 55.516,15.154 55.516,44.305 52.166,47.454 "
       transform="matrix(-1,0,0,1,61.351,0)" />
    <polygon
       style="fill:#0b4819"
       id="polygon19"
       points="11.683,13.201 9.13,16.215 4.455,15.226 7.159,11.971 "
       transform="matrix(-1,0,0,1,61.351,0)" />
    <polygon
       style="fill:#084010"
       id="polygon21"
       points="15.306,24.71 11.004,24.358 11.004,18.039 15.306,18.846 "
       transform="matrix(-1,0,0,1,61.351,0)" />
    <polygon
       style="fill:#0c541e"
       id="polygon23"
       points="25.361,45.997 21.714,47.346 15.82,47.006 19.834,45.706 "
       transform="matrix(-1,0,0,1,61.351,0)" />
    <polygon
       style="fill:#1a5c34"
       id="polygon25"
       points="15.306,18.846 11.004,18.039 23.808,3.106 27.321,5.066 "
       transform="matrix(-1,0,0,1,61.351,0)" />
    <polygon
       style="fill:#0b4819"
       id="polygon27"
       points="33.126,4.617 15.306,24.71 11.004,24.358 30.022,2.58 "
       transform="matrix(-1,0,0,1,61.351,0)" />
    <polygon
       style="fill:#1a5c34"
       id="polygon29"
       points="9.13,41.393 4.455,42.317 33.195,10.432 36.083,11.882 "
       transform="matrix(-1,0,0,1,61.351,0)" />
    <polygon
       style="fill:#0b4819"
       id="polygon31"
       points="42.222,11.55 4.919,51.667 0,53.344 39.798,10.042 "
       transform="matrix(-1,0,0,1,61.351,0)" />
    <polygon
       style="fill:#1a5c34"
       id="polygon33"
       points="28.175,53.465 24.721,55.437 45.597,34.677 47.597,34.243 "
       transform="matrix(-1,0,0,1,61.351,0)" />
    <polygon
       style="fill:#0b4819"
       id="polygon35"
       points="47.597,34.243 47.597,40.738 45.597,41.737 45.597,34.677 "
       transform="matrix(-1,0,0,1,61.351,0)" />
    <polygon
       style="fill:#0b4819"
       id="polygon37"
       points="47.597,40.738 34.012,53.917 30.973,55.965 45.597,41.737 "
       transform="matrix(-1,0,0,1,61.351,0)" />
    <polygon
       style="fill:#13802d"
       id="polygon39"
       points="52.166,47.454 55.516,44.305 54.168,45.648 50.538,49.059 "
       transform="matrix(-1,0,0,1,61.351,0)" />
    <polygon
       style="fill:#0b4819"
       id="polygon41"
       points="55.516,15.154 25.361,45.997 21.714,47.346 54.168,13.9 "
       transform="matrix(-1,0,0,1,61.351,0)" />
    <polygon
       style="fill:#084010"
       id="polygon43"
       points="55.516,44.305 54.168,45.648 54.168,13.9 55.516,15.154 "
       transform="matrix(-1,0,0,1,61.351,0)" />
    <polygon
       style="fill:#084010"
       id="polygon45"
       points="60.662,55.981 59.759,58.403 59.759,49.604 60.662,47.913 "
       transform="matrix(-1,0,0,1,61.351,0)" />
    <polygon
       style="fill:#1a5c34"
       id="polygon47"
       points="19.834,45.706 15.82,47.006 60.507,0 61.351,2.432 "
       transform="matrix(-1,0,0,1,61.351,0)" />
    <polygon
       style="fill:url(#a)"
       id="polygon49"
       points="59.759,49.604 59.759,58.403 30.973,55.965 45.597,41.737 45.597,34.677 24.721,55.437 0,53.344 39.798,10.042 33.195,10.432 4.455,42.317 4.455,15.226 7.159,11.971 0.511,12.364 0.511,5.078 23.808,3.106 11.004,18.039 11.004,24.358 30.022,2.58 60.507,0 15.82,47.006 21.714,47.346 54.168,13.9 54.168,45.648 50.538,49.059 "
       transform="matrix(-1,0,0,1,61.351,0)" />
    <path
       style="fill:#ffffff;fill-opacity:1;stroke:#cbcbcb;stroke-opacity:1;stroke-width:0.5;stroke-miterlimit:4;stroke-dasharray:none"
       d="M 40.212891 14.486328 L 38.833984 20.347656 L 36.972656 20.212891 L 43.595703 27.560547 L 43.595703 24.433594 L 47.068359 24.605469 L 47.068359 20.945312 L 43.595703 20.677734 L 43.595703 16.626953 L 41.880859 14.662109 L 40.212891 14.486328 z M 38.1875 28.140625 L 38.1875 39.025391 C 38.1875 39.123864 38.202572 39.205014 38.205078 39.300781 L 43.029297 44.373047 C 43.046587 44.371726 43.06278 44.372512 43.080078 44.371094 C 44.509489 44.249729 45.908556 43.863543 47.449219 43.212891 L 47.449219 39.847656 C 46.677202 40.245464 45.797433 40.471799 45.0625 40.515625 C 45.01867 40.522325 44.990553 40.521484 44.943359 40.521484 C 44.46127 40.521484 44.158398 40.369284 43.925781 40.0625 C 43.666195 39.725375 43.595703 38.977535 43.595703 37.814453 L 43.595703 34.025391 L 38.1875 28.140625 z "
       id="path4275" />
    <path
       style="fill:#ffffff;fill-opacity:1;stroke:#cbcbcb;stroke-opacity:1;stroke-width:0.5;stroke-miterlimit:4;stroke-dasharray:none"
       d="M 23.769531 12.455078 C 21.105858 12.597301 18.961537 13.72744 17.400391 15.902344 C 17.197425 16.185528 17.010624 16.495822 16.828125 16.8125 L 21.861328 22.107422 C 22.040278 20.794716 22.280333 19.774775 22.591797 19.089844 C 23.262677 17.619977 24.226362 16.888672 25.480469 16.888672 C 25.581606 16.888672 25.684553 16.892234 25.789062 16.902344 C 27.140935 17.020338 28.151921 17.961605 28.826172 19.701172 C 29.503794 21.433997 29.833984 24.589457 29.833984 29.177734 C 29.833984 29.647388 29.816194 30.029461 29.810547 30.470703 L 35.230469 36.169922 C 35.578911 34.167875 35.757906 31.87911 35.759766 29.275391 C 35.759766 27.856492 35.695865 26.53787 35.578125 25.302734 L 23.769531 12.455078 z M 15.021484 21.976562 C 14.624832 23.987188 14.414062 26.290275 14.414062 28.917969 C 14.414062 33.191503 14.868481 36.668879 15.753906 39.353516 L 15.753906 34.677734 L 29.230469 48.080078 C 28.937204 47.589743 28.701079 46.917649 28.529297 46.033203 C 30.802716 45.254804 32.505497 43.637475 33.691406 41.21875 L 29.433594 36.830078 C 29.275995 37.937364 29.070415 38.816529 28.818359 39.462891 C 28.133995 41.226057 27.12745 42.150095 25.789062 42.234375 C 25.728379 42.237675 25.670055 42.240234 25.609375 42.240234 C 24.274359 42.240234 23.257165 41.284361 22.576172 39.359375 C 21.854723 37.336623 21.496094 33.889762 21.496094 29.035156 C 21.496094 28.897835 21.503357 28.792979 21.503906 28.658203 L 15.021484 21.976562 z M 30.046875 48.890625 L 32.207031 51.039062 L 32.207031 49.121094 C 31.940702 49.148064 31.691601 49.166016 31.458984 49.166016 C 30.880609 49.166016 30.412073 49.071286 30.046875 48.890625 z M 23.515625 49.289062 C 24.021269 50.577486 24.648567 51.524588 25.396484 52.125 C 25.94246 52.564591 26.609645 52.855831 27.367188 53.033203 L 23.515625 49.289062 z "
       id="path4277" />
    <rect
       style="fill:none"
       y="1.1927316"
       x="6.3765092"
       class="st2"
       width="46.523304"
       height="60.682571"
       id="rect4279" />
  </g>
</svg>
